# xmcd
#
# Track frame offsets: 
#        150
#        16507
#        33912
#        51532
#        68878
#        83293
#        99687
#        116493
#        135445
#        153486
#        169400
#
# Disc length: 2488 seconds
#
# Revision: 1
# Processed by: cddbd v1.4PL0 Copyright (c) Steve Scherf et al.
# Submitted via: ExactAudioCopy v0.90b3
#
DISCID=8309b60b
DTITLE=Mindy McCready - Mindy McCready
DYEAR=2002
DGENRE=Country
TTITLE0=Maybe, Maybe Not
TTITLE1=Lips Like Yours
TTITLE2=Lovin' Your Man
TTITLE3=Be With Me
TTITLE4=The Fire
TTITLE5=Scream
TTITLE6=I Just Want Love
TTITLE7=Don't Speak
TTITLE8=If I Feel Your Hand
TTITLE9=You Get To Me
TTITLE10=Tremble
EXTD=YEAR: 2002 ID3G: 2
EXTT0=
EXTT1=
EXTT2=
EXTT3=
EXTT4=
EXTT5=
EXTT6=
EXTT7=
EXTT8=
EXTT9=
EXTT10=
PLAYORDER=
